<?xml version="1.0" encoding="utf-8"?>
<!-- Generator: Adobe Illustrator 16.0.0, SVG Export Plug-In . SVG Version: 6.00 Build 0)  -->
<!DOCTYPE svg PUBLIC "-//W3C//DTD SVG 1.1//EN" "http://www.w3.org/Graphics/SVG/1.1/DTD/svg11.dtd">
<svg version="1.1" id="Layer_1" xmlns="http://www.w3.org/2000/svg" xmlns:xlink="http://www.w3.org/1999/xlink" x="0px" y="0px"
	 width="1152px" height="864px" viewBox="0 0 1152 864" enable-background="new 0 0 1152 864" xml:space="preserve">
<g id="g1000" transform="translate(74.593169,-74.31924)">
	<path id="path992_3_" fill="none" stroke="#FF0000" stroke-width="0.0028" stroke-miterlimit="4.2" d="M441.813,215.488"/>
	<path id="path992_2_" fill="none" stroke="#FF0000" stroke-width="0.0028" stroke-miterlimit="4.2" d="M441.813,148.367"/>
</g>
<g>
	<circle fill="none" stroke="#FF0000" stroke-width="0.0028" stroke-miterlimit="4.2" cx="445.37" cy="303.604" r="6.378"/>
	<circle fill="none" stroke="#FF0000" stroke-width="0.0028" stroke-miterlimit="4.2" cx="445.37" cy="460.406" r="6.378"/>
	<circle fill="none" stroke="#FF0000" stroke-width="0.0028" stroke-miterlimit="4.2" cx="643.795" cy="460.406" r="6.378"/>
	<circle fill="none" stroke="#FF0000" stroke-width="0.0028" stroke-miterlimit="4.2" cx="643.795" cy="303.606" r="6.378"/>
	<g>
		<circle fill="none" stroke="#FF0000" stroke-width="0.0028" stroke-miterlimit="4.2" cx="665.984" cy="407.789" r="4.464"/>
		<circle fill="none" stroke="#FF0000" stroke-width="0.0028" stroke-miterlimit="4.2" cx="665.984" cy="357.076" r="4.464"/>
	</g>
	<polygon fill="none" stroke="#FF0000" stroke-width="0.0028" stroke-miterlimit="4.2" points="655.851,421.808 655.851,440.309 
		655.851,471 545.299,471 434.748,471 434.748,382 434.748,293 545.299,293 655.851,293 655.851,343.808 655.851,348.41 
		677.11,348.41 677.11,415.591 655.851,415.591 	"/>
	
		<rect x="451.748" y="310.91" fill="none" stroke="#FF0000" stroke-width="0.0028" stroke-miterlimit="4.2" width="185.669" height="142.18"/>
</g>
</svg>
